<svg width="1200" height="1200" viewBox="0 0 1200 1200" fill="none" xmlns="http://www.w3.org/2000/svg">
  <rect width="1200" height="1200" rx="72" fill="#F6F0E7"/>
  <rect x="72" y="72" width="1056" height="1056" rx="56" fill="url(#paint0_linear)"/>
  <rect x="144" y="160" width="436" height="780" rx="36" fill="#F8FAFC"/>
  <rect x="196" y="228" width="332" height="240" rx="24" fill="#E9D8C5"/>
  <rect x="196" y="514" width="140" height="338" rx="24" fill="#0F172A"/>
  <rect x="356" y="514" width="172" height="338" rx="24" fill="#D7B18A"/>
  <rect x="620" y="160" width="436" height="344" rx="36" fill="#0F172A"/>
  <rect x="620" y="544" width="436" height="396" rx="36" fill="#FFF8EE"/>
  <path d="M704 736C761.99 736 809 688.99 809 631C809 573.01 761.99 526 704 526C646.01 526 599 573.01 599 631C599 688.99 646.01 736 704 736Z" fill="#C19A6B"/>
  <path d="M891 816C948.99 816 996 768.99 996 711C996 653.01 948.99 606 891 606C833.01 606 786 653.01 786 711C786 768.99 833.01 816 891 816Z" fill="#E7DED2"/>
  <defs>
    <linearGradient id="paint0_linear" x1="1128" y1="72" x2="72" y2="1128" gradientUnits="userSpaceOnUse">
      <stop stop-color="#FFF8EE"/>
      <stop offset="1" stop-color="#EFE5D9"/>
    </linearGradient>
  </defs>
</svg>
