<svg width="1440" height="1120" viewBox="0 0 1440 1120" fill="none" xmlns="http://www.w3.org/2000/svg">
  <rect width="1440" height="1120" rx="72" fill="#0C1220"/>
  <rect x="56" y="56" width="1328" height="1008" rx="52" fill="url(#paint0_linear)"/>
  <rect x="116" y="128" width="520" height="864" rx="40" fill="#F8FBFF"/>
  <rect x="176" y="196" width="404" height="248" rx="26" fill="#DBEAFE"/>
  <rect x="176" y="492" width="164" height="388" rx="28" fill="#10203B"/>
  <rect x="364" y="492" width="216" height="388" rx="28" fill="#2563EB"/>
  <rect x="700" y="128" width="628" height="368" rx="40" fill="#10203B"/>
  <rect x="700" y="540" width="628" height="452" rx="40" fill="#EDF5FF"/>
  <rect x="762" y="188" width="236" height="248" rx="28" fill="#1E3A8A"/>
  <rect x="1022" y="188" width="244" height="112" rx="24" fill="#60A5FA"/>
  <rect x="1022" y="324" width="244" height="112" rx="24" fill="#BFDBFE"/>
  <circle cx="830" cy="750" r="122" fill="#2563EB"/>
  <circle cx="1086" cy="812" r="138" fill="#DBEAFE"/>
  <path d="M215 902H1198" stroke="#BFD8FF" stroke-opacity="0.5" stroke-width="8" stroke-linecap="round"/>
  <defs>
    <linearGradient id="paint0_linear" x1="1327.5" y1="56" x2="97.5" y2="1052" gradientUnits="userSpaceOnUse">
      <stop stop-color="#11213C"/>
      <stop offset="0.48" stop-color="#17305A"/>
      <stop offset="1" stop-color="#0B1629"/>
    </linearGradient>
  </defs>
</svg>
