<?xml version="1.0" encoding="UTF-8"?><svg xmlns="http://www.w3.org/2000/svg" viewBox="0 0 1546.2 853.92"><g id="uuid-75dff206-8a7c-4047-9628-e557bb1eb361"><path d="m401.63,0H41.93C18.79,0,.02,18.76.02,41.91v200.37c-1.54,67.44,75.96,102.56,124.27,55.48l133.52-130.12-53.74-10.98c-10.92-2.23-12.31-17.27-1.98-21.46l148.41-60.23c8.55-3.47,17.14,4.89,13.9,13.53l-56.62,150.86c-2.93,7.8-13.9,7.96-17.06.25l-21.13-51.64-127.29,135.1c-43.43,46.1-12.67,120.41,50.67,120.45h208.66c23.14,0,41.91-18.76,41.91-41.91V41.91c0-23.14-18.76-41.91-41.91-41.91Z"/></g><g id="uuid-079d7aed-4287-485d-b586-3fbeb87d62f5"><path d="m1480.22,554.2h-167.24c-10.76,0-19.48,8.72-19.48,19.48v93.16c-.72,31.35,35.31,47.68,57.78,25.79l62.08-60.5-24.99-5.11c-5.08-1.04-5.72-8.03-.92-9.98l69-28c3.98-1.61,7.97,2.28,6.46,6.29l-26.32,70.14c-1.36,3.63-6.46,3.7-7.93.12l-9.82-24.01-59.18,62.81c-20.19,21.43-5.89,55.98,23.56,56h97.01c10.76,0,19.48-8.72,19.48-19.48v-167.24c0-10.76-8.72-19.48-19.48-19.48Z"/><text transform="translate(1249.95 836)" style="font-family:BroadwayBT-Regular, &apos;Broadway BT&apos;; font-size:75.99px;"><tspan x="0" y="0">AFKAR</tspan></text></g></svg>